<svg width="156" height="36" viewBox="0 0 156 36" fill="none" xmlns="http://www.w3.org/2000/svg">
<g clip-path="url(#clip0_1_15)">
<path d="M15.4042 17.1546V9.37161C15.3919 8.86571 15.3151 8.26066 15.0132 7.30536C12.8932 2.18995 5.79311 2.69206 4.40081 8.0962L4.30304 8.8858L4.2721 9.37663L0.54819 11.8408V8.98497L0.57913 8.55565C1.65212 -1.36135 14.6877 -3.20792 18.4735 5.93078C18.8683 6.77059 19.091 7.90666 19.117 9.37663V17.1546H26.9559L27.3779 17.1859C27.5945 17.2173 28.0339 17.2801 28.2504 17.3165C28.467 17.3692 28.9051 17.4684 29.1217 17.5161L29.5437 17.6467C38.7588 21.1302 37.5373 34.2432 27.8272 35.8952C27.4609 35.9216 26.9448 35.958 26.5735 35.9893H24.1453L26.5735 32.2133L27.0586 32.182L27.5747 32.1142C33.0461 30.9844 33.7986 23.4789 28.6106 21.3134L28.0957 21.1138L27.8371 21.046L27.5797 21.0147L27.0636 20.9155H19.117V26.5745L19.0861 27.0038V27.4331C19.0551 27.6478 18.9883 28.0758 18.9574 28.2855C18.9066 28.5051 18.8076 28.9495 18.7618 29.1692C18.2408 30.7697 17.5812 32.0301 16.4005 33.2389L16.0441 33.5678L15.6889 33.8616C12.5429 36.445 7.6136 36.6798 4.21022 34.4516L3.43055 33.8616L3.07534 33.5678L2.71893 33.2389L2.0692 32.5171C-0.2352 29.5621 -0.663422 25.6079 1.03332 22.2436L1.25981 21.8156L1.77587 21.026C2.71397 19.733 3.97755 18.6559 5.43172 18.0069L5.85498 17.8086L6.30795 17.6467L6.73119 17.5161C6.94777 17.4634 7.38588 17.3642 7.60246 17.3165L8.44279 17.1859L8.86604 17.1546H15.4042ZM15.4042 20.9155H8.77818L8.29427 21.0147L8.03562 21.046L7.77819 21.1138L7.52078 21.2143C6.54556 21.5168 5.59632 22.2022 4.96267 22.9868L4.6372 23.4789L4.47754 23.7086C3.49861 25.4296 3.48747 27.6729 4.47754 29.3889L4.6372 29.65L4.96267 30.1107L5.34881 30.54L5.77206 30.9317L6.2572 31.2932C7.96879 32.3966 10.5677 32.4958 12.3932 31.5857L12.6506 31.4238L12.8783 31.2932L13.3313 30.9317C13.9451 30.4823 14.7755 29.4052 15.0132 28.6357L15.1109 28.3746C15.1679 28.1386 15.2446 27.8197 15.3065 27.585L15.3733 27.0615L15.4042 26.5694V20.9155Z" fill="#FF7B60"/>
<path d="M46.0118 0.829391C46.0118 0.829391 46.9348 0.829391 48.7813 0.829391C48.7813 6.57653 48.7813 12.3258 48.7813 18.0778C48.7813 23.8207 48.7813 29.5658 48.7813 35.3129C48.7813 35.3129 47.8577 35.3129 46.0118 35.3129C46.0118 29.5658 46.0118 23.8166 46.0118 18.0666C46.0118 12.3223 46.0118 6.57653 46.0118 0.829391ZM68.8002 0.829391C68.8002 0.829391 70.0383 0.829391 72.5144 0.829391C72.5144 0.829391 64.1412 8.69218 47.3962 24.4191C47.3962 24.4191 47.3962 23.3471 47.3962 21.203C47.3962 21.203 54.5307 14.4116 68.8002 0.829391ZM56.0709 14.6661C56.0709 14.6661 62.2633 21.5484 74.6474 35.3129C74.6474 35.3129 73.3963 35.3129 70.8949 35.3129C70.8949 35.3129 65.3253 29.054 54.1861 16.5362C54.1861 16.5362 54.8144 15.9129 56.0709 14.6661Z" fill="#FF7B60"/>
<path d="M95.0068 10.3433C95.0068 10.3433 91.9748 18.6561 85.9103 35.281C85.9103 35.281 84.8185 35.281 82.6343 35.281C82.6343 35.281 79.6024 26.9682 73.5378 10.3433C73.5378 10.3433 74.5476 10.3433 76.5663 10.3433C76.5663 10.3433 79.1108 17.6929 84.1998 32.3908C84.1998 32.3908 84.2388 32.3908 84.3167 32.3908C84.3167 32.3908 86.877 25.0412 91.9981 10.3433C91.9981 10.3433 93.001 10.3433 95.0068 10.3433Z" fill="#FF7B60"/>
<path d="M102.591 1.45487C103.275 1.45487 103.839 1.6851 104.282 2.14345C104.706 2.58378 104.919 3.12463 104.918 3.76536C104.917 4.41649 104.701 4.95944 104.271 5.39353C103.836 5.83178 103.275 6.05161 102.59 6.053C101.931 6.05438 101.373 5.82554 100.916 5.36719C100.502 4.95113 100.294 4.4172 100.293 3.76468C100.293 3.12465 100.516 2.57475 100.962 2.11362C101.388 1.67399 101.931 1.45417 102.591 1.45487ZM101.217 10.3432C101.217 10.3432 102.136 10.3432 103.975 10.3432C103.975 14.5052 103.975 18.6692 103.975 22.8368C103.975 26.9925 103.975 31.1517 103.975 35.3129C103.975 35.3129 103.056 35.3129 101.217 35.3129C101.217 31.1517 101.217 26.9876 101.217 22.8222C101.217 18.6644 101.217 14.5052 101.217 10.3432Z" fill="#FF7B60"/>
<path d="M111.415 0.152618C111.415 0.152618 112.323 0.152618 114.139 0.152618C114.139 6.01279 114.139 11.875 114.139 17.7393C114.139 23.5953 114.139 29.4527 114.139 35.3129C114.139 35.3129 113.231 35.3129 111.415 35.3129C111.415 29.4527 111.415 23.5912 111.415 17.7283C111.415 11.8716 111.415 6.01279 111.415 0.152618ZM128.031 10.3432C128.031 10.3432 129.269 10.3432 131.745 10.3432C131.745 10.3432 125.422 16.1216 112.777 27.6769C112.777 27.6769 112.777 26.5695 112.777 24.3546C112.777 24.3546 117.861 19.6844 128.031 10.3432ZM120.115 19.2129C120.115 19.2129 124.346 24.5793 132.807 35.3129C132.807 35.3129 131.633 35.3129 129.284 35.3129C129.284 35.3129 125.602 30.5664 118.238 21.0741C118.238 21.0741 118.864 20.4541 120.115 19.2129Z" fill="#FF7B60"/>
<path d="M135.699 17.1146C136.168 14.7 137.323 12.8465 139.166 11.5554C140.962 10.2968 143.309 9.66714 146.208 9.66714C148.659 9.66714 150.671 10.1664 152.244 11.1649C154.744 12.7522 155.994 15.4892 155.994 19.3751C155.993 30.0006 155.992 35.3129 155.992 35.3129C155.992 35.3129 155.141 35.3129 153.44 35.3129C153.44 35.3129 153.44 33.2548 153.44 29.1386C153.44 29.1386 153.395 28.9777 153.307 28.656C153.307 28.656 153.307 25.5064 153.307 19.208C153.307 17.351 152.922 15.8345 152.153 14.6571C151.005 12.902 148.988 12.0241 146.101 12.0248C144.168 12.0248 142.559 12.409 141.273 13.178C139.69 14.1252 138.717 15.5148 138.355 17.3469C138.355 17.3469 137.47 17.2692 135.699 17.1146ZM154.518 20.7565C154.518 20.7565 154.518 23.4553 154.518 28.8529C153.261 30.9457 151.903 32.5281 150.445 33.5994C148.274 35.1929 145.781 35.9897 142.966 35.9897C140.521 35.9897 138.546 35.3483 137.041 34.0668C135.581 32.8235 134.851 31.2009 134.851 29.1989C134.851 26.7296 135.729 24.7866 137.484 23.3693C139.556 21.6953 142.932 20.8535 147.614 20.8424C147.614 20.8424 149.916 20.8133 154.518 20.7565ZM153.324 22.9588C153.324 22.9588 151.407 22.9831 147.574 23.033C145.199 23.0635 143.38 23.2722 142.117 23.6605C139.114 24.5821 137.612 26.4238 137.612 29.1851C137.612 30.4977 138.168 31.5947 139.279 32.4754C140.333 33.311 141.729 33.7284 143.47 33.7284C145.916 33.7284 148.125 32.9074 150.093 31.264C152.248 29.4659 153.325 27.5715 153.324 25.5806C153.324 25.5806 153.324 24.7069 153.324 22.9588Z" fill="#FF7B60"/>
</g>
<defs>
<clipPath id="clip0_1_15">
<rect width="156" height="36" fill="white"/>
</clipPath>
</defs>
</svg>
